<svg height="512pt" viewBox="0 -6 512 512" width="512pt" xmlns="http://www.w3.org/2000/svg"><path d="m184.394531 79.316406s0-69.171875 86.464844-69.171875c86.46875 0 95.113281 103.757813 95.113281 103.757813s69.171875-8.648438 69.171875 60.523437-69.171875 69.171875-69.171875 69.171875h-172.929687s-86.464844 0-86.464844-86.464844c0-69.171874 77.816406-77.816406 77.816406-77.816406zm0 0" fill="#9ee2f8"/><path d="m438.601562 298.0625h64.796876v64.796875h-64.796876zm0 0" fill="#9ee2f8"/><path d="m438.601562 424.28125h64.796876v64.796875h-64.796876zm0 0" fill="#00ccb3"/><path d="m11.6875 299.167969h64.796875v64.796875h-64.796875zm0 0" fill="#ffda44"/><path d="m11.6875 424.28125h64.796875v64.796875h-64.796875zm0 0" fill="#928fde"/><path d="m199.386719 424.28125h114.871093v64.796875h-114.871093zm0 0" fill="#fff"/><path d="m293.976562 299.167969h-94.589843v64.796875h114.871093v-64.796875zm0 0" fill="#ff4c04"/><path d="m501.855469 373c5.601562 0 10.144531-4.539062 10.144531-10.140625v-64.796875c0-5.601562-4.542969-10.144531-10.144531-10.144531h-64.796875c-5.601563 0-10.144532 4.542969-10.144532 10.144531v22.726562h-11.695312c-5.601562 0-10.144531 4.542969-10.144531 10.144532 0 5.597656 4.542969 10.140625 10.144531 10.140625h11.695312v21.785156c0 5.601563 4.542969 10.140625 10.144532 10.140625h22.253906v41.136719h-22.253906c-5.601563 0-10.144532 4.542969-10.144532 10.144531v64.796875c0 5.601563 4.542969 10.144531 10.144532 10.144531h64.796875c5.601562 0 10.144531-4.542968 10.144531-10.144531v-64.796875c0-5.601562-4.542969-10.144531-10.144531-10.144531h-22.253907v-41.136719zm-10.144531 105.933594h-44.507813v-44.507813h44.507813zm-44.507813-170.726563h44.507813v44.507813h-44.507813zm0 0"/><path d="m257.304688 118.707031c-5.34375 1.675781-8.320313 7.367188-6.644532 12.714844 1.675782 5.347656 7.367188 8.320313 12.714844 6.644531 5.765625-1.808594 12.003906-.28125 16.273438 3.988282 4.265624 4.269531 5.796874 10.503906 3.988281 16.273437-1.675781 5.34375 1.300781 11.035156 6.644531 12.710937 1.011719.316407 2.03125.46875 3.039062.46875 4.316407 0 8.316407-2.777343 9.675782-7.113281 4.074218-13 .625-27.058593-9.003906-36.6875-9.628907-9.628906-23.683594-13.074219-36.6875-9zm0 0"/><path d="m266.457031 88.339844c-5.34375 1.675781-8.320312 7.367187-6.644531 12.714844 1.675781 5.347656 7.367188 8.320312 12.714844 6.644531 11.804687-3.703125 24.566406-.574219 33.308594 8.167969 8.738281 8.738281 11.867187 21.5 8.167968 33.304687-1.675781 5.347656 1.300782 11.039063 6.644532 12.714844 1.011718.320312 2.03125.46875 3.039062.46875 4.316406 0 8.316406-2.777344 9.675781-7.113281 5.96875-19.035157.917969-39.621094-13.179687-53.722657-14.101563-14.101562-34.6875-19.148437-53.726563-13.179687zm0 0"/><path d="m261.167969 155.691406c-5.058594-2.40625-11.113281-.261718-13.523438 4.796875l-.082031.179688c-2.410156 5.054687-.265625 11.109375 4.792969 13.519531 1.410156.671875 2.894531.988281 4.355469.988281 3.789062 0 7.425781-2.132812 9.164062-5.78125l.085938-.179687c2.410156-5.058594.261718-11.113282-4.792969-13.523438zm0 0"/><path d="m379.28125 321.207031c-5.058594-2.402343-11.109375-.25-13.515625 4.808594l-.085937.179687c-2.402344 5.0625-.25 11.113282 4.808593 13.515626 1.40625.667968 2.890625.984374 4.347657.984374 3.792968 0 7.433593-2.136718 9.167968-5.792968l.085938-.179688c2.40625-5.058594.253906-11.109375-4.808594-13.515625zm0 0"/><path d="m422.539062 120.527344c-16.089843-14.203125-37.089843-16.890625-49.332031-17.101563-1.820312-10.496093-5.945312-28.152343-14.835937-45.941406-18.804688-37.605469-49.601563-57.484375-89.054688-57.484375-49.308594 0-73.039062 21.402344-84.257812 39.355469-7.371094 11.789062-10.34375 23.605469-11.542969 31.300781-8.152344 1.746094-21.296875 5.425781-34.5 12.761719-28.867187 16.039062-44.125 41.527343-44.125 73.714843 0 49.847657 26.558594 73.589844 48.835937 84.730469 23.488282 11.746094 46.789063 11.878907 47.769532 11.878907h54.375v35.285156h-48.03125c-5.601563 0-10.144532 4.539062-10.144532 10.140625v21.621093h-102.613281v-21.621093c0-5.601563-4.539062-10.140625-10.140625-10.140625h-64.796875c-5.601562 0-10.144531 4.539062-10.144531 10.140625v64.796875c0 5.601562 4.542969 10.144531 10.144531 10.144531h22.253907v40.027344h-22.253907c-5.601562 0-10.144531 4.542969-10.144531 10.144531v64.796875c0 5.601563 4.542969 10.144531 10.144531 10.144531h64.796875c5.601563 0 10.140625-4.542968 10.140625-10.144531v-64.796875c0-5.601562-4.539062-10.144531-10.140625-10.144531h-22.257812v-40.027344h22.257812c5.601563 0 10.140625-4.542969 10.140625-10.144531v-22.886719h102.617188v22.886719c0 5.601562 4.539062 10.144531 10.140625 10.144531h48.03125v40.027344h-48.03125c-5.601563 0-10.140625 4.542969-10.140625 10.144531v64.796875c0 5.601563 4.539062 10.144531 10.140625 10.144531h114.871094c5.601562 0 10.144531-4.542968 10.144531-10.144531v-64.796875c0-5.601562-4.542969-10.144531-10.144531-10.144531h-46.554688v-40.027344h46.554688c5.601562 0 10.144531-4.542969 10.144531-10.144531v-22.886719h12.984375c5.601562 0 10.144531-4.542969 10.144531-10.144531 0-5.601563-4.542969-10.144532-10.144531-10.144532h-12.984375v-21.621093c0-5.601563-4.542969-10.140625-10.144531-10.140625h-46.550782v-35.285156h98.269532c.800781 0 19.90625-.109376 39.121093-9.71875 18.335938-9.167969 40.191407-28.683594 40.191407-69.597657 0-23.34375-7.132813-41.476562-21.203126-53.898437zm-357.742187 313.898437v44.507813h-44.507813v-44.507813zm0-80.605469h-44.507813v-44.507812h44.507813zm237.769531 80.605469v44.507813h-94.582031v-44.507813zm0-125.113281v44.507812h-94.582031v-44.507812zm92.476563-83.71875c-14.960938 7.671875-30.492188 7.859375-30.613281 7.859375h-98.269532v-27.933594c0-5.601562-4.542968-10.144531-10.144531-10.144531s-10.144531 4.542969-10.144531 10.144531v27.933594h-54.347656c-3.117188-.015625-76.34375-1.25-76.34375-76.320313 0-24.53125 11.164062-43.269531 33.179687-55.695312 17.367187-9.800781 35.261719-11.996094 35.628906-12.042969 5.128907-.578125 9.007813-4.917969 9.007813-10.078125 0-.144531.253906-14.789062 9.265625-29.210937 12.367187-19.785157 34.929687-29.820313 67.054687-29.820313 31.523438 0 55.296875 15.40625 70.660156 45.78125 12.09375 23.90625 14.324219 48.445313 14.34375 48.675782.230469 2.746093 1.578126 5.273437 3.707032 7.015624 2.132812 1.742188 4.902344 2.539063 7.628906 2.214844.269531-.035156 26.84375-2.996094 43.546875 11.839844 9.457031 8.40625 14.253906 21.394531 14.253906 38.613281 0 24.28125-9.5625 41.496094-28.414062 51.167969zm0 0"/></svg>