<svg height="395pt" viewBox="0 -27 395.94737 395" width="395pt" xmlns="http://www.w3.org/2000/svg"><path d="m366.144531 334.980469h-336.339843c-12.691407 0-22.976563-10.285157-22.976563-22.976563v-120.382812h382.292969v120.382812c0 12.691406-10.289063 22.976563-22.976563 22.976563zm0 0" fill="#aaa"/><path d="m366.144531 334.980469v-6.828125h-336.339843c-8.917969-.015625-16.132813-7.230469-16.152344-16.148438v-113.558594h368.640625v113.558594c-.015625 8.917969-7.234375 16.132813-16.148438 16.148438v13.65625c16.460938-.003906 29.796875-13.339844 29.800781-29.804688v-120.382812c0-1.800782-.726562-3.558594-2-4.828125-1.269531-1.269531-3.027343-2-4.824218-2h-382.292969c-1.796875 0-3.558594.726562-4.828125 2-1.269531 1.273437-2 3.03125-2 4.828125v120.382812c.00390625 16.460938 13.339844 29.796875 29.804688 29.800782h336.339843zm0 0" fill="#54596e"/><path d="m389.121094 191.621094h-382.292969l61.4375-116.054688h259.414063zm0 0" fill="#d8d8d8"/><path d="m389.121094 191.621094v-6.828125h-370.957032l54.214844-102.402344h251.191406l59.515626 112.421875 6.035156-3.191406v-6.828125 6.828125l6.03125-3.195313-61.4375-116.054687c-1.183594-2.230469-3.507813-3.628906-6.035156-3.628906h-259.414063c-2.523437 0-4.847656 1.394531-6.03125 3.628906l-61.441406 116.054687c-1.121094 2.113281-1.050781 4.664063.183593 6.714844 1.234376 2.054687 3.457032 3.304687 5.851563 3.304687h382.292969c2.394531 0 4.613281-1.25 5.847656-3.304687 1.234375-2.050781 1.304688-4.597656.183594-6.714844zm0 0" fill="#54596e"/><path d="m112.867188 279.085938c9.277343 7.011718 21.679687 12.472656 36.234374 16.320312 14.550782 3.828125 31.253907 5.980469 49.046876 5.980469 18.003906 0 34.898437-2.207031 49.574218-6.121094 14.675782-3.933594 27.140625-9.515625 36.371094-16.691406 2.972656-2.320313 3.5-6.605469 1.183594-9.582031-2.320313-2.96875-6.609375-3.5-9.582032-1.179688-7.152343 5.601562-18.117187 10.707031-31.496093 14.261719-13.382813 3.578125-29.171875 5.664062-46.050781 5.664062-16.679688 0-32.292969-2.039062-45.570313-5.535156-13.277344-3.480469-24.210937-8.476563-31.460937-13.992187-3.003907-2.277344-7.285157-1.691407-9.5625 1.316406-2.277344 3-1.691407 7.28125 1.3125 9.558594zm0 0" fill="#54596e"/><path d="m116.054688 232.582031c0 7.539063-6.113282 13.652344-13.65625 13.652344-7.539063 0-13.652344-6.113281-13.652344-13.652344 0-7.542969 6.113281-13.65625 13.652344-13.65625 7.542968 0 13.65625 6.113281 13.65625 13.65625zm0 0" fill="#54596e"/><path d="m307.199219 232.582031c0 7.539063-6.113281 13.652344-13.652344 13.652344s-13.652344-6.113281-13.652344-13.652344c0-7.542969 6.113281-13.65625 13.652344-13.65625s13.652344 6.113281 13.652344 13.65625zm0 0" fill="#54596e"/><path d="m249.425781 100.960938c-4.828125-5.792969-13.4375-6.566407-19.230469-1.746094l-18.570312 15.46875v-93.730469c0-7.539063-6.113281-13.652344-13.652344-13.652344-7.539062 0-13.652344 6.113281-13.652344 13.652344v93.730469l-18.566406-15.46875c-5.796875-4.820313-14.402344-4.046875-19.230468 1.746094-4.828126 5.792968-4.042969 14.402343 1.75 19.226562l40.957031 34.132812.601562.417969.945313.65625 1.261718.683594.972657.445313 1.523437.472656.890625.234375c.84375.160156 1.691407.257812 2.546875.257812.851563 0 1.703125-.097656 2.546875-.257812l.886719-.234375 1.523438-.472656.972656-.445313 1.265625-.683594.941406-.65625.601563-.417969 40.960937-34.132812c5.796875-4.824219 6.578125-13.433594 1.753906-19.226562zm0 0" fill="#9af43b"/><path d="m249.425781 100.960938 5.242188-4.371094c-4.035157-4.847656-9.894531-7.378906-15.734375-7.367188-4.605469-.007812-9.300782 1.5625-13.113282 4.746094l-7.367187 6.140625v-79.15625c-.003906-11.316406-9.167969-20.476563-20.480469-20.480469-11.3125.003906-20.472656 9.164063-20.480468 20.480469v79.15625l-7.367188-6.140625c-3.8125-3.175781-8.5-4.753906-13.109375-4.746094-5.835937-.011718-11.703125 2.515625-15.738281 7.367188-3.175782 3.804687-4.75 8.492187-4.742188 13.097656-.011718 5.84375 2.523438 11.703125 7.363282 15.738281l40.964843 34.136719.476563.363281.601562.417969-.007812-.003906.941406.65625.652344.402344 1.265625.679687.398437.203125.972656.445312.820313.316407 1.527344.472656.292969.085937.886718.234376.460938.101562c1.171875.222656 2.449218.375 3.820312.375s2.644532-.152344 3.820313-.375l.457031-.101562.890625-.234376.292969-.085937 1.523437-.472656.820313-.316407.972656-.445312.402344-.203125 1.261718-.679687.652344-.402344.945313-.65625-.007813.003906.601563-.417969.476562-.363281 40.957031-34.132812c4.851563-4.035157 7.382813-9.898438 7.371094-15.742188.003906-4.605469-1.566406-9.296875-4.75-13.105469l-5.234375 4.378907-5.242187 4.375c1.070312 1.285156 1.574218 2.792968 1.578125 4.351562-.011719 1.984375-.824219 3.890625-2.457031 5.253906l-40.730469 33.941406-.351563.246094-.007812.003906-.632813.441407-.726562.390625-.371094.171875-.9375.289062-.757813.199219 1.730469 6.605469-1.273437-6.707031-1.273438.136718-1.273437-.136718-1.273438 6.707031 1.730469-6.605469-.734375-.191406-.972656-.300782-.375-.175781-.710938-.386719-.632812-.4375-.003907-.003906-.359374-.25-40.722657-33.9375c-1.636719-1.371094-2.449219-3.273437-2.460937-5.253906.007812-1.554688.507812-3.0625 1.582031-4.359375 1.367187-1.636719 3.265625-2.445313 5.246094-2.457031 1.554687.007812 3.070312.507812 4.375 1.589844l18.5625 15.464843c2.039062 1.699219 4.859375 2.066407 7.265625.941407 2.40625-1.128907 3.933594-3.527344 3.933594-6.183594v-93.730469c.003906-3.765625 3.058593-6.820313 6.824218-6.828125 3.765625.007812 6.820313 3.0625 6.828125 6.828125v93.730469c0 2.65625 1.527344 5.054687 3.929688 6.183594 2.40625 1.125 5.226562.757812 7.265625-.941407l18.566406-15.46875c1.300781-1.078125 2.804688-1.578125 4.371094-1.582031 1.980468.007812 3.882812.820312 5.246094 2.453125zm0 0" fill="#54596e"/><path d="m361.8125 294.019531c0 7.542969-6.113281 13.652344-13.652344 13.652344-7.539062 0-13.652344-6.109375-13.652344-13.652344 0-7.539062 6.113282-13.652343 13.652344-13.652343 7.539063 0 13.652344 6.113281 13.652344 13.652343zm0 0" fill="#9af43b"/><path d="m54.613281 294.019531c0 7.542969-6.113281 13.652344-13.652343 13.652344-7.542969 0-13.652344-6.109375-13.652344-13.652344 0-7.539062 6.109375-13.652343 13.652344-13.652343 7.539062 0 13.652343 6.113281 13.652343 13.652343zm0 0" fill="#f99"/><g fill="#aaa"><path d="m314.027344 102.875h-40.960938c-3.769531 0-6.828125 3.054688-6.828125 6.824219s3.058594 6.828125 6.828125 6.828125h40.960938c3.769531 0 6.824218-3.058594 6.824218-6.828125s-3.054687-6.824219-6.824218-6.824219"/><path d="m327.679688 123.355469h-40.960938c-3.769531 0-6.824219 3.054687-6.824219 6.824219 0 3.769531 3.054688 6.828124 6.824219 6.828124h40.960938c3.769531 0 6.828124-3.058593 6.828124-6.828124 0-3.769532-3.058593-6.824219-6.828124-6.824219"/><path d="m341.332031 143.832031h-40.957031c-3.773438 0-6.828125 3.054688-6.828125 6.828125 0 3.769532 3.054687 6.828125 6.828125 6.828125h40.957031c3.769531 0 6.828125-3.058593 6.828125-6.828125 0-3.769531-3.058594-6.828125-6.828125-6.828125"/><path d="m81.921875 116.527344h40.957031c3.769532 0 6.828125-3.058594 6.828125-6.828125s-3.058593-6.824219-6.828125-6.824219h-40.957031c-3.773437 0-6.828125 3.054688-6.828125 6.824219s3.054688 6.828125 6.828125 6.828125"/><path d="m68.265625 137.007812h40.960937c3.769532 0 6.828126-3.058593 6.828126-6.828124 0-3.769532-3.058594-6.824219-6.828126-6.824219h-40.960937c-3.769531 0-6.824219 3.054687-6.824219 6.824219 0 3.769531 3.054688 6.828124 6.824219 6.828124"/><path d="m54.613281 157.488281h40.960938c3.769531 0 6.824219-3.058593 6.824219-6.828125 0-3.773437-3.054688-6.828125-6.824219-6.828125h-40.960938c-3.769531 0-6.828125 3.054688-6.828125 6.828125 0 3.769532 3.058594 6.828125 6.828125 6.828125"/></g></svg>