<?xml version="1.0" encoding="UTF-8"?>
<svg xmlns="http://www.w3.org/2000/svg" xmlns:xlink="http://www.w3.org/1999/xlink" width="512" height="512" viewBox="0 0 60 60" version="1.1"><!-- Generator: Sketch 51.3 (57544) - http://www.bohemiancoding.com/sketch --><title>014 -Website Growth</title><desc>Created with Sketch.</desc><defs/><g id="Page-1" stroke="none" stroke-width="1" fill="none" fill-rule="evenodd"><g id="014--Website-Growth" fill-rule="nonzero"><rect id="Rectangle-path" fill="#CFD8DC" x="21" y="1" width="18" height="17" rx="2"/><rect id="Rectangle-path" fill="#CFD8DC" x="1" y="10" width="16" height="14" rx="2"/><rect id="Rectangle-path" fill="#F5F5F5" x="21" y="1" width="15" height="17" rx="2"/><rect id="Rectangle-path" fill="#F5F5F5" x="1" y="10" width="13" height="14" rx="2"/><path d="M44,39 L44,55 C44,57.209139 42.209139,59 40,59 L20,59 C17.790861,59 16,57.209139 16,55 L16,39 L44,39 Z" id="Shape" fill="#C81E1E"/><path d="M41,39 L41,55 C41,57.209139 39.209139,59 37,59 L20,59 C17.790861,59 16,57.209139 16,55 L16,39 L41,39 Z" id="Shape" fill="#F44335"/><path d="M22.19,29.95 C28.68,27.91 24.91,22 24.91,22 C20.12,25 21.08,29 21.08,29" id="Shape" fill="#549414"/><path d="M37.81,29.95 C31.32,27.91 35.09,22 35.09,22 C39.88,25 38.92,29 38.92,29" id="Shape" fill="#549414"/><path d="M12,29.04 C10,35.74 4,31.91 4,31.91 C6.61,27.74 9.99,27.93 10.81,28.04" id="Shape" fill="#549414"/><path d="M49.19,28.04 C50.01,27.93 53.39,27.74 56,31.91 C56,31.91 50,35.74 48,29.04" id="Shape" fill="#549414"/><rect id="Rectangle-path" fill="#F57C00" x="14" y="35" width="32" height="6" rx="1"/><rect id="Rectangle-path" fill="#FF9801" x="14" y="35" width="29" height="6" rx="1"/><path d="M39,3 L39,7 L21,7 L21,3 C21.0032948,1.89679813 21.8967981,1.0032948 23,1 L37,1 C38.1032019,1.0032948 38.9967052,1.89679813 39,3 Z" id="Shape" fill="#0377BC"/><path d="M36,3 L36,7 L21,7 L21,3 C21.0032948,1.89679813 21.8967981,1.0032948 23,1 L34,1 C35.1032019,1.0032948 35.9967052,1.89679813 36,3 Z" id="Shape" fill="#02A9F4"/><path d="M17,12 L17,16 L1,16 L1,12 C1.0032948,10.8967981 1.89679813,10.0032948 3,10 L15,10 C16.1032019,10.0032948 16.9967052,10.8967981 17,12 Z" id="Shape" fill="#0377BC"/><path d="M14,12 L14,16 L1,16 L1,12 C1.0032948,10.8967981 1.89679813,10.0032948 3,10 L12,10 C13.1032019,10.0032948 13.9967052,10.8967981 14,12 Z" id="Shape" fill="#02A9F4"/><rect id="Rectangle-path" fill="#CFD8DC" x="43" y="10" width="16" height="14" rx="2"/><rect id="Rectangle-path" fill="#F5F5F5" x="43" y="10" width="13" height="14" rx="2"/><path d="M59,12 L59,16 L43,16 L43,12 C43.0032948,10.8967981 43.8967981,10.0032948 45,10 L57,10 C58.1032019,10.0032948 58.9967052,10.8967981 59,12 Z" id="Shape" fill="#0377BC"/><path d="M56,12 L56,16 L43,16 L43,12 C43.0032948,10.8967981 43.8967981,10.0032948 45,10 L54,10 C55.1032019,10.0032948 55.9967052,10.8967981 56,12 Z" id="Shape" fill="#02A9F4"/><path d="M40,60 L20,60 C17.2399468,59.9966939 15.0033061,57.7600532 15,55 L15,41 C15,40.4477153 15.4477153,40 16,40 L44,40 C44.5522847,40 45,40.4477153 45,41 L45,55 C44.9966939,57.7600532 42.7600532,59.9966939 40,60 Z M17,42 L17,55 C17,56.6568542 18.3431458,58 20,58 L40,58 C41.6568542,58 43,56.6568542 43,55 L43,42 L17,42 Z" id="Shape" fill="#000000"/><path d="M45,42 L15,42 C13.8954305,42 13,41.1045695 13,40 L13,36 C13,34.8954305 13.8954305,34 15,34 L45,34 C46.1045695,34 47,34.8954305 47,36 L47,40 C47,41.1045695 46.1045695,42 45,42 Z M15,36 L15,40 L45,40 L45,36 L15,36 Z" id="Shape" fill="#000000"/><path d="M20,46 C19.8693227,45.99842 19.7402223,45.971241 19.62,45.92 C19.4988607,45.8692709 19.3872607,45.7982527 19.29,45.71 C18.9032597,45.3156639 18.9032597,44.6843361 19.29,44.29 C19.3872607,44.2017473 19.4988607,44.1307291 19.62,44.08 C19.9928693,43.9280583 20.4202714,44.0104019 20.71,44.29 C20.9984599,44.5760905 21.0851619,45.0082668 20.929371,45.3834815 C20.77358,45.7586962 20.4062651,46.0023626 20,46 Z" id="Shape" fill="#000000"/><path d="M39,46 L24,46 C23.4477153,46 23,45.5522847 23,45 C23,44.4477153 23.4477153,44 24,44 L39,44 C39.5522847,44 40,44.4477153 40,45 C40,45.5522847 39.5522847,46 39,46 Z" id="Shape" fill="#000000"/><path d="M23,36 C22.4477153,36 22,35.5522847 22,35 L22,32 C22,30.8954305 21.1045695,30 20,30 L13,30 C10.790861,30 9,28.209139 9,26 L9,24 C9,23.4477153 9.44771525,23 10,23 C10.5522847,23 11,23.4477153 11,24 L11,26 C11,27.1045695 11.8954305,28 13,28 L20,28 C22.209139,28 24,29.790861 24,32 L24,35 C24,35.5522847 23.5522847,36 23,36 Z" id="Shape" fill="#000000"/><path d="M15,25 L3,25 C1.34314575,25 1.67448831e-15,23.6568542 0,22 L0,12 C-2.02906125e-16,10.3431458 1.34314575,9 3,9 L15,9 C16.6568542,9 18,10.3431458 18,12 L18,22 C18,23.6568542 16.6568542,25 15,25 Z M3,11 C2.44771525,11 2,11.4477153 2,12 L2,22 C2,22.5522847 2.44771525,23 3,23 L15,23 C15.5522847,23 16,22.5522847 16,22 L16,12 C16,11.4477153 15.5522847,11 15,11 L3,11 Z" id="Shape" fill="#000000"/><path d="M37,19 L23,19 C21.3431458,19 20,17.6568542 20,16 L20,3 C20,1.34314575 21.3431458,3.04359188e-16 23,0 L37,0 C38.6568542,1.01453063e-16 40,1.34314575 40,3 L40,16 C40,17.6568542 38.6568542,19 37,19 Z M23,2 C22.4477153,2 22,2.44771525 22,3 L22,16 C22,16.5522847 22.4477153,17 23,17 L37,17 C37.5522847,17 38,16.5522847 38,16 L38,3 C38,2.44771525 37.5522847,2 37,2 L23,2 Z" id="Shape" fill="#000000"/><path d="M4,14 C3.73527314,13.9961196 3.48174298,13.892565 3.29,13.71 C2.90325967,13.3156639 2.90325967,12.6843361 3.29,12.29 C3.6910198,11.9199816 4.3089802,11.9199816 4.71,12.29 C4.99845995,12.5760905 5.08516186,13.0082668 4.92937095,13.3834815 C4.77358004,13.7586962 4.40626507,14.0023626 4,14 Z" id="Shape" fill="#000000"/><path d="M7,14 C6.73527314,13.9961196 6.48174298,13.892565 6.29,13.71 C5.90325967,13.3156639 5.90325967,12.6843361 6.29,12.29 C6.61048344,11.9721491 7.10416818,11.9083931 7.49488673,12.1343972 C7.88560527,12.3604013 8.07648801,12.820133 7.96075506,13.2564182 C7.8450221,13.6927033 7.45136675,13.9973751 7,14 Z" id="Shape" fill="#000000"/><path d="M10,14 C9.73527314,13.9961196 9.48174298,13.892565 9.29,13.71 C8.90325967,13.3156639 8.90325967,12.6843361 9.29,12.29 C9.61048344,11.9721491 10.1041682,11.9083931 10.4948867,12.1343972 C10.8856053,12.3604013 11.076488,12.820133 10.9607551,13.2564182 C10.8450221,13.6927033 10.4513667,13.9973751 10,14 Z" id="Shape" fill="#000000"/><path d="M24,5 C23.7352731,4.99611961 23.481743,4.89256504 23.29,4.71 C22.9032597,4.3156639 22.9032597,3.6843361 23.29,3.29 C23.6910198,2.91998159 24.3089802,2.91998159 24.71,3.29 C25.0967403,3.6843361 25.0967403,4.3156639 24.71,4.71 C24.518257,4.89256504 24.2647269,4.99611961 24,5 Z" id="Shape" fill="#000000"/><path d="M27,5 C26.7352731,4.99611961 26.481743,4.89256504 26.29,4.71 C25.9032597,4.3156639 25.9032597,3.6843361 26.29,3.29 C26.6910198,2.91998159 27.3089802,2.91998159 27.71,3.29 C28.0967403,3.6843361 28.0967403,4.3156639 27.71,4.71 C27.518257,4.89256504 27.2647269,4.99611961 27,5 Z" id="Shape" fill="#000000"/><path d="M30,5 C29.7352731,4.99611961 29.481743,4.89256504 29.29,4.71 C28.9032597,4.3156639 28.9032597,3.6843361 29.29,3.29 C29.6910198,2.91998159 30.3089802,2.91998159 30.71,3.29 C31.0967403,3.6843361 31.0967403,4.3156639 30.71,4.71 C30.518257,4.89256504 30.2647269,4.99611961 30,5 Z" id="Shape" fill="#000000"/><path d="M37,36 C36.4477153,36 36,35.5522847 36,35 L36,32 C36,29.790861 37.790861,28 40,28 L47,28 C48.1045695,28 49,27.1045695 49,26 L49,24 C49,23.4477153 49.4477153,23 50,23 C50.5522847,23 51,23.4477153 51,24 L51,26 C51,28.209139 49.209139,30 47,30 L40,30 C38.8954305,30 38,30.8954305 38,32 L38,35 C38,35.5522847 37.5522847,36 37,36 Z" id="Shape" fill="#000000"/><path d="M57,25 L45,25 C43.3431458,25 42,23.6568542 42,22 L42,12 C42,10.3431458 43.3431458,9 45,9 L57,9 C58.6568542,9 60,10.3431458 60,12 L60,22 C60,23.6568542 58.6568542,25 57,25 Z M45,11 C44.4477153,11 44,11.4477153 44,12 L44,22 C44,22.5522847 44.4477153,23 45,23 L57,23 C57.5522847,23 58,22.5522847 58,22 L58,12 C58,11.4477153 57.5522847,11 57,11 L45,11 Z" id="Shape" fill="#000000"/><path d="M46,14 C45.7352731,13.9961196 45.481743,13.892565 45.29,13.71 C44.9032597,13.3156639 44.9032597,12.6843361 45.29,12.29 C45.6104834,11.9721491 46.1041682,11.9083931 46.4948867,12.1343972 C46.8856053,12.3604013 47.076488,12.820133 46.9607551,13.2564182 C46.8450221,13.6927033 46.4513667,13.9973751 46,14 Z" id="Shape" fill="#000000"/><path d="M49,14 C48.7352731,13.9961196 48.481743,13.892565 48.29,13.71 C47.9032597,13.3156639 47.9032597,12.6843361 48.29,12.29 C48.6104834,11.9721491 49.1041682,11.9083931 49.4948867,12.1343972 C49.8856053,12.3604013 50.076488,12.820133 49.9607551,13.2564182 C49.8450221,13.6927033 49.4513667,13.9973751 49,14 Z" id="Shape" fill="#000000"/><path d="M52,14 C51.7352731,13.9961196 51.481743,13.892565 51.29,13.71 C50.9032597,13.3156639 50.9032597,12.6843361 51.29,12.29 C51.6104834,11.9721491 52.1041682,11.9083931 52.4948867,12.1343972 C52.8856053,12.3604013 53.076488,12.820133 52.9607551,13.2564182 C52.8450221,13.6927033 52.4513667,13.9973751 52,14 Z" id="Shape" fill="#000000"/><path d="M30,36 C29.4477153,36 29,35.5522847 29,35 L29,18 C29,17.4477153 29.4477153,17 30,17 C30.5522847,17 31,17.4477153 31,18 L31,35 C31,35.5522847 30.5522847,36 30,36 Z" id="Shape" fill="#000000"/><rect id="Rectangle-path" fill="#000000" x="21" y="6" width="18" height="2"/><rect id="Rectangle-path" fill="#000000" x="1" y="15" width="16" height="2"/><rect id="Rectangle-path" fill="#000000" x="43" y="15" width="16" height="2"/><path d="M27,12 L25,12 C24.4477153,12 24,11.5522847 24,11 C24,10.4477153 24.4477153,10 25,10 L27,10 C27.5522847,10 28,10.4477153 28,11 C28,11.5522847 27.5522847,12 27,12 Z" id="Shape" fill="#000000"/><path d="M35,12 L31,12 C30.4477153,12 30,11.5522847 30,11 C30,10.4477153 30.4477153,10 31,10 L35,10 C35.5522847,10 36,10.4477153 36,11 C36,11.5522847 35.5522847,12 35,12 Z" id="Shape" fill="#000000"/><path d="M29,15 L25,15 C24.4477153,15 24,14.5522847 24,14 C24,13.4477153 24.4477153,13 25,13 L29,13 C29.5522847,13 30,13.4477153 30,14 C30,14.5522847 29.5522847,15 29,15 Z" id="Shape" fill="#000000"/><path d="M22.189,30.951 C21.7526291,30.9505901 21.3669111,30.6672716 21.236,30.251 C21.2090148,30.1664607 21.1935423,30.078671 21.19,29.99 C20.6896839,30.0493296 20.2243553,29.7242016 20.108,29.234 C20.062,29.043 19.042,24.497 24.379,21.153 C24.8444263,20.8615324 25.4578128,20.9999239 25.753,21.463 C25.834,21.589 27.716,24.591 26.695,27.396 C25.9387754,29.1725499 24.3738143,30.4766221 22.49,30.9 C22.3929309,30.9325557 22.2913756,30.9497627 22.189,30.951 Z M24.533,23.485 C21.469,25.909 22.027,28.65 22.055,28.775 C22.0662499,28.8280583 22.0736029,28.8818686 22.077,28.936 C23.2841588,28.6560399 24.2945361,27.8346009 24.815,26.71 C25.1086161,25.6357699 25.0085999,24.4919684 24.533,23.485 Z" id="Shape" fill="#000000"/><path d="M7.611,34 C6.14428479,33.9458146 4.71589387,33.5168498 3.462,32.754 C2.99892387,32.4588128 2.86053245,31.8454263 3.152,31.38 C6.032,26.78 9.845,26.901 10.943,27.05 C11.4462494,27.1174497 11.8190697,27.5513316 11.81,28.059 C12.1533483,27.992617 12.5064304,28.1104173 12.7411389,28.3696598 C12.9758473,28.6289022 13.0580797,28.9919198 12.958,29.327 C12.28,31.599 11.092,33.065 9.428,33.685 C8.84608848,33.8979797 8.23064468,34.0046747 7.611,34 Z M5.483,31.535 C6.49892808,32.0180842 7.65598499,32.1147723 8.738,31.807 C9.86293017,31.2692548 10.6797645,30.2460934 10.955,29.03 C10.8627217,29.0419988 10.7692783,29.0419988 10.677,29.03 C9.951,28.934 7.592,28.867 5.483,31.535 Z" id="Shape" fill="#000000"/><path d="M52.389,34 C51.7693553,34.0046747 51.1539115,33.8979797 50.572,33.685 C48.908,33.065 47.72,31.599 47.042,29.327 C46.9419203,28.9919198 47.0241527,28.6289022 47.2588611,28.3696598 C47.4935696,28.1104173 47.8466517,27.992617 48.19,28.059 C48.1809303,27.5513316 48.5537506,27.1174497 49.057,27.05 C50.157,26.9 53.967,26.779 56.848,31.38 C57.1394676,31.8454263 57.0010761,32.4588128 56.538,32.754 C55.2839785,33.5165632 53.8556639,33.9455051 52.389,34 Z M49.045,29.03 C49.3207335,30.2490209 50.1410029,31.2738969 51.27,31.81 C52.3498109,32.1105912 53.5017587,32.0122585 54.515,31.533 C52.407,28.867 50.048,28.933 49.323,29.033 C49.2305929,29.0440149 49.1371479,29.0430065 49.045,29.03 Z" id="Shape" fill="#000000"/><path d="M37.811,30.951 C37.7091705,30.9509505 37.6079657,30.9350951 37.511,30.904 C35.6280032,30.478142 34.0649455,29.1722446 33.311,27.395 C32.29,24.595 34.172,21.588 34.253,21.462 C34.5481872,20.9989239 35.1615737,20.8605324 35.627,21.152 C40.964,24.496 39.944,29.042 39.898,29.233 C39.7774938,29.7209424 39.3159513,30.0455578 38.816,29.994 C38.7904565,30.5282882 38.3508945,30.9489491 37.816,30.951 L37.811,30.951 Z M35.465,23.484 C34.987282,24.4933979 34.8889524,25.6410497 35.188,26.717 C35.7101712,27.8371068 36.7183035,28.6549698 37.922,28.935 C37.9257689,28.8783509 37.9344685,28.8221382 37.948,28.767 C37.973,28.649 38.532,25.908 35.465,23.484 Z" id="Shape" fill="#000000"/></g></g></svg>
